<svg width="60" height="60" viewBox="0 0 60 60" fill="none" xmlns="http://www.w3.org/2000/svg">
<path d="M0 0H60V60H0V0Z" fill="#D7CFC9"/>
<path d="M23.576 39.904H22.088V22.84L17.24 25V23.512L22.256 21.256H23.576V39.904Z" fill="#4B443B"/>
<path d="M41.7547 30.568C41.7547 34.888 41.1787 36.976 40.0027 38.464C39.0907 39.616 37.6747 40.216 35.8267 40.216C33.9787 40.216 32.5867 39.616 31.6507 38.464C30.4747 36.976 29.8987 34.888 29.8987 30.568C29.8987 26.296 30.4747 24.184 31.6507 22.72C32.5867 21.568 33.9787 20.944 35.8267 20.944C37.6747 20.944 39.0907 21.568 40.0027 22.72C41.1787 24.184 41.7547 26.296 41.7547 30.568ZM40.2667 30.568C40.2667 26.704 39.8347 24.784 38.9467 23.656C38.2507 22.768 37.1947 22.264 35.8267 22.264C34.4587 22.264 33.4027 22.768 32.7067 23.656C31.8187 24.784 31.3867 26.704 31.3867 30.568C31.3867 34.456 31.8187 36.376 32.7067 37.504C33.4027 38.392 34.4587 38.92 35.8267 38.92C37.1947 38.92 38.2507 38.392 38.9467 37.504C39.8347 36.376 40.2667 34.456 40.2667 30.568Z" fill="#4B443B"/>
</svg>
