<svg width="60" height="60" viewBox="0 0 60 60" fill="none" xmlns="http://www.w3.org/2000/svg">
<path d="M0 0H60V60H0V0Z" fill="#98BCC4"/>
<path d="M23.576 39.904H22.088V22.84L17.24 25V23.512L22.256 21.256H23.576V39.904Z" fill="#4B443B"/>
<path d="M35.9467 29.128C34.3627 29.128 33.1147 29.968 32.4907 31.48H30.9787L31.4587 21.256H40.5307V22.576H32.8747L32.5387 29.68C33.1867 28.576 34.4587 27.808 36.1627 27.808C39.4507 27.808 41.5387 30.016 41.5387 34.048C41.5387 37.96 39.4267 40.216 35.9467 40.216C32.6347 40.216 30.6667 38.272 30.3787 35.032H31.8667C32.1307 37.6 33.6187 38.92 35.9467 38.92C38.5627 38.92 40.0507 37.168 40.0507 34.024C40.0507 30.88 38.5627 29.128 35.9467 29.128Z" fill="#4B443B"/>
</svg>
