<svg width="60" height="60" viewBox="0 0 60 60" fill="none" xmlns="http://www.w3.org/2000/svg">
<path d="M0 0H60V60H0V0Z" fill="#EBA6A6"/>
<path d="M23.576 39.904H22.088V22.84L17.24 25V23.512L22.256 21.256H23.576V39.904Z" fill="#4B443B"/>
<path d="M41.2747 26.392C41.2747 28.096 40.9147 29.224 39.4507 30.832L32.5867 38.608H41.5627V39.904H30.5947V38.68L38.2507 30.016C39.3547 28.768 39.7867 27.712 39.7867 26.416C39.7867 24.04 38.3227 22.264 35.8027 22.264C33.2587 22.264 31.8187 24.064 31.8187 26.416V26.944H30.3307V26.392C30.3307 23.44 32.2507 20.944 35.8027 20.944C39.3787 20.944 41.2747 23.44 41.2747 26.392Z" fill="#4B443B"/>
</svg>
