<svg width="60" height="60" viewBox="0 0 60 60" fill="none" xmlns="http://www.w3.org/2000/svg">
<path d="M0 0H60V60H0V0Z" fill="#D7CFC9"/>
<path d="M23.576 39.904H22.088V22.84L17.24 25V23.512L22.256 21.256H23.576V39.904Z" fill="#4B443B"/>
<path d="M40.0507 34.792C40.0507 32.296 38.4907 30.64 35.9227 30.64H34.0987V29.344H36.0187C38.3227 29.344 39.4987 27.664 39.4987 25.792C39.4987 23.728 38.0107 22.264 35.7787 22.264C33.4747 22.264 32.0587 23.728 32.0587 25.792V26.128H30.5707V25.696C30.5707 23.032 32.5387 20.944 35.7787 20.944C39.0187 20.944 40.9867 23.032 40.9867 25.696C40.9867 27.856 39.9067 29.464 37.9867 29.992C40.0747 30.472 41.5387 32.128 41.5387 34.816C41.5387 38.152 39.2107 40.216 35.7787 40.216C32.3467 40.216 29.9947 38.056 29.9947 34.624V34.456H31.5067V34.576C31.5067 37.288 33.3067 38.92 35.7787 38.92C38.2507 38.92 40.0507 37.312 40.0507 34.792Z" fill="#4B443B"/>
</svg>
