<svg width="60" height="60" viewBox="0 0 60 60" fill="none" xmlns="http://www.w3.org/2000/svg">
<path d="M0 0H60V60H0V0Z" fill="#EBA6A6"/>
<path d="M23.576 39.904H22.088V22.84L17.24 25V23.512L22.256 21.256H23.576V39.904Z" fill="#4B443B"/>
<path d="M41.1547 25.456H39.5947C39.3307 23.272 37.9147 22.264 35.9227 22.264C32.8747 22.264 31.8187 24.568 31.7227 30.184C32.3947 28.768 33.9547 27.808 36.0667 27.808C39.4747 27.808 41.6587 30.184 41.6587 34.024C41.6587 37.864 39.3547 40.216 35.9467 40.216C33.5467 40.216 31.7227 39.16 30.8107 36.88C30.3067 35.656 30.1867 33.976 30.1867 32.008V31.6C30.1867 23.656 31.8907 20.944 35.9707 20.944C38.8267 20.944 40.7947 22.456 41.1547 25.456ZM35.9467 38.896C38.4667 38.896 40.1707 37.12 40.1707 34.024C40.1707 30.952 38.4667 29.128 35.9467 29.128C33.4267 29.128 31.7227 30.952 31.7227 34.024C31.7227 37.12 33.4267 38.896 35.9467 38.896Z" fill="#4B443B"/>
</svg>
