<svg width="60" height="60" viewBox="0 0 60 60" fill="none" xmlns="http://www.w3.org/2000/svg">
<path d="M0 0H60V60H0V0Z" fill="#98C4A4"/>
<path d="M23.576 39.904H22.088V22.84L17.24 25V23.512L22.256 21.256H23.576V39.904Z" fill="#4B443B"/>
<path d="M30.4747 35.704H32.0347C32.2987 37.888 33.7147 38.896 35.7067 38.896C38.7547 38.896 39.8347 36.616 39.9067 30.976C39.2347 32.392 37.6987 33.352 35.5627 33.352C32.1547 33.352 29.9707 30.976 29.9707 27.136C29.9707 23.296 32.2987 20.944 35.7067 20.944C38.0827 20.944 39.9067 22 40.8187 24.28C41.3227 25.528 41.4427 27.184 41.4427 29.176V29.584C41.4427 37.552 39.6907 40.216 35.6827 40.216C32.8027 40.216 30.8347 38.704 30.4747 35.704ZM35.7067 22.264C33.1627 22.264 31.4827 24.064 31.4827 27.136C31.4827 30.232 33.1627 32.032 35.7067 32.032C38.2267 32.032 39.9067 30.232 39.9067 27.136C39.9067 24.064 38.2267 22.264 35.7067 22.264Z" fill="#4B443B"/>
</svg>
