<svg width="60" height="60" viewBox="0 0 60 60" fill="none" xmlns="http://www.w3.org/2000/svg">
<path d="M0 0H60V60H0V0Z" fill="#98C4A4"/>
<path d="M23.576 39.904H22.088V22.84L17.24 25V23.512L22.256 21.256H23.576V39.904Z" fill="#4B443B"/>
<path d="M35.8267 40.216C32.2267 40.216 29.8027 38.248 29.8027 34.912C29.8027 32.416 31.1947 30.664 33.4747 30.064C31.6027 29.464 30.3547 27.88 30.3547 25.744C30.3547 22.912 32.4427 20.944 35.8267 20.944C39.2107 20.944 41.2987 22.912 41.2987 25.744C41.2987 27.88 40.0507 29.464 38.1787 30.064C40.4587 30.664 41.8747 32.416 41.8747 34.912C41.8747 38.248 39.4267 40.216 35.8267 40.216ZM35.8267 29.392C38.1787 29.392 39.8107 28.024 39.8107 25.84C39.8107 23.656 38.1787 22.264 35.8267 22.264C33.4747 22.264 31.8427 23.656 31.8427 25.84C31.8427 28.024 33.4747 29.392 35.8267 29.392ZM40.3627 34.816C40.3627 32.224 38.4907 30.688 35.8267 30.688C33.1867 30.688 31.2907 32.224 31.2907 34.816C31.2907 37.408 33.1867 38.92 35.8267 38.92C38.4907 38.92 40.3627 37.408 40.3627 34.816Z" fill="#4B443B"/>
</svg>
