<svg width="60" height="60" viewBox="0 0 60 60" fill="none" xmlns="http://www.w3.org/2000/svg">
<path d="M0 0H60V60H0V0Z" fill="#EBA6A6"/>
<path d="M28.72 26.392C28.72 28.096 28.36 29.224 26.896 30.832L20.032 38.608H29.008V39.904H18.04V38.68L25.696 30.016C26.8 28.768 27.232 27.712 27.232 26.416C27.232 24.04 25.768 22.264 23.248 22.264C20.704 22.264 19.264 24.064 19.264 26.416V26.944H17.776V26.392C17.776 23.44 19.696 20.944 23.248 20.944C26.824 20.944 28.72 23.44 28.72 26.392Z" fill="#4B443B"/>
<path d="M32.3547 22.576V21.256H43.2507V22.48L36.6027 39.904H35.0187L41.7387 22.576H32.3547Z" fill="#4B443B"/>
</svg>
