<svg width="60" height="60" viewBox="0 0 60 60" fill="none" xmlns="http://www.w3.org/2000/svg">
<path d="M0 0H60V60H0V0Z" fill="#D7CFC9"/>
<path d="M27.72 26.392C27.72 28.096 27.36 29.224 25.896 30.832L19.032 38.608H28.008V39.904H17.04V38.68L24.696 30.016C25.8 28.768 26.232 27.712 26.232 26.416C26.232 24.04 24.768 22.264 22.248 22.264C19.704 22.264 18.264 24.064 18.264 26.416V26.944H16.776V26.392C16.776 23.44 18.696 20.944 22.248 20.944C25.824 20.944 27.72 23.44 27.72 26.392Z" fill="#4B443B"/>
<path d="M41.0507 34.792C41.0507 32.296 39.4907 30.64 36.9227 30.64H35.0987V29.344H37.0187C39.3227 29.344 40.4987 27.664 40.4987 25.792C40.4987 23.728 39.0107 22.264 36.7787 22.264C34.4747 22.264 33.0587 23.728 33.0587 25.792V26.128H31.5707V25.696C31.5707 23.032 33.5387 20.944 36.7787 20.944C40.0187 20.944 41.9867 23.032 41.9867 25.696C41.9867 27.856 40.9067 29.464 38.9867 29.992C41.0747 30.472 42.5387 32.128 42.5387 34.816C42.5387 38.152 40.2107 40.216 36.7787 40.216C33.3467 40.216 30.9947 38.056 30.9947 34.624V34.456H32.5067V34.576C32.5067 37.288 34.3067 38.92 36.7787 38.92C39.2507 38.92 41.0507 37.312 41.0507 34.792Z" fill="#4B443B"/>
</svg>
