<svg width="60" height="60" viewBox="0 0 60 60" fill="none" xmlns="http://www.w3.org/2000/svg">
<path d="M0 0H60V60H0V0Z" fill="#EBA6A6"/>
<path d="M27.72 26.392C27.72 28.096 27.36 29.224 25.896 30.832L19.032 38.608H28.008V39.904H17.04V38.68L24.696 30.016C25.8 28.768 26.232 27.712 26.232 26.416C26.232 24.04 24.768 22.264 22.248 22.264C19.704 22.264 18.264 24.064 18.264 26.416V26.944H16.776V26.392C16.776 23.44 18.696 20.944 22.248 20.944C25.824 20.944 27.72 23.44 27.72 26.392Z" fill="#4B443B"/>
<path d="M31.4747 35.704H33.0347C33.2987 37.888 34.7147 38.896 36.7067 38.896C39.7547 38.896 40.8347 36.616 40.9067 30.976C40.2347 32.392 38.6987 33.352 36.5627 33.352C33.1547 33.352 30.9707 30.976 30.9707 27.136C30.9707 23.296 33.2987 20.944 36.7067 20.944C39.0827 20.944 40.9067 22 41.8187 24.28C42.3227 25.528 42.4427 27.184 42.4427 29.176V29.584C42.4427 37.552 40.6907 40.216 36.6827 40.216C33.8027 40.216 31.8347 38.704 31.4747 35.704ZM36.7067 22.264C34.1627 22.264 32.4827 24.064 32.4827 27.136C32.4827 30.232 34.1627 32.032 36.7067 32.032C39.2267 32.032 40.9067 30.232 40.9067 27.136C40.9067 24.064 39.2267 22.264 36.7067 22.264Z" fill="#4B443B"/>
</svg>
