<svg width="60" height="60" viewBox="0 0 60 60" fill="none" xmlns="http://www.w3.org/2000/svg">
<path d="M0 0H60V60H0V0Z" fill="#EBA6A6"/>
<path d="M27.72 26.392C27.72 28.096 27.36 29.224 25.896 30.832L19.032 38.608H28.008V39.904H17.04V38.68L24.696 30.016C25.8 28.768 26.232 27.712 26.232 26.416C26.232 24.04 24.768 22.264 22.248 22.264C19.704 22.264 18.264 24.064 18.264 26.416V26.944H16.776V26.392C16.776 23.44 18.696 20.944 22.248 20.944C25.824 20.944 27.72 23.44 27.72 26.392Z" fill="#4B443B"/>
<path d="M36.9467 29.128C35.3627 29.128 34.1147 29.968 33.4907 31.48H31.9787L32.4587 21.256H41.5307V22.576H33.8747L33.5387 29.68C34.1867 28.576 35.4587 27.808 37.1627 27.808C40.4507 27.808 42.5387 30.016 42.5387 34.048C42.5387 37.96 40.4267 40.216 36.9467 40.216C33.6347 40.216 31.6667 38.272 31.3787 35.032H32.8667C33.1307 37.6 34.6187 38.92 36.9467 38.92C39.5627 38.92 41.0507 37.168 41.0507 34.024C41.0507 30.88 39.5627 29.128 36.9467 29.128Z" fill="#4B443B"/>
</svg>
