<svg width="60" height="60" viewBox="0 0 60 60" fill="none" xmlns="http://www.w3.org/2000/svg">
<path d="M0 0H60V60H0V0Z" fill="#98BCC4"/>
<path d="M27.72 26.392C27.72 28.096 27.36 29.224 25.896 30.832L19.032 38.608H28.008V39.904H17.04V38.68L24.696 30.016C25.8 28.768 26.232 27.712 26.232 26.416C26.232 24.04 24.768 22.264 22.248 22.264C19.704 22.264 18.264 24.064 18.264 26.416V26.944H16.776V26.392C16.776 23.44 18.696 20.944 22.248 20.944C25.824 20.944 27.72 23.44 27.72 26.392Z" fill="#4B443B"/>
<path d="M42.2747 26.392C42.2747 28.096 41.9147 29.224 40.4507 30.832L33.5867 38.608H42.5627V39.904H31.5947V38.68L39.2507 30.016C40.3547 28.768 40.7867 27.712 40.7867 26.416C40.7867 24.04 39.3227 22.264 36.8027 22.264C34.2587 22.264 32.8187 24.064 32.8187 26.416V26.944H31.3307V26.392C31.3307 23.44 33.2507 20.944 36.8027 20.944C40.3787 20.944 42.2747 23.44 42.2747 26.392Z" fill="#4B443B"/>
</svg>
