<svg width="60" height="60" viewBox="0 0 60 60" fill="none" xmlns="http://www.w3.org/2000/svg">
<path d="M0 0H60V60H0V0Z" fill="#D7CFC9"/>
<path d="M27.72 26.392C27.72 28.096 27.36 29.224 25.896 30.832L19.032 38.608H28.008V39.904H17.04V38.68L24.696 30.016C25.8 28.768 26.232 27.712 26.232 26.416C26.232 24.04 24.768 22.264 22.248 22.264C19.704 22.264 18.264 24.064 18.264 26.416V26.944H16.776V26.392C16.776 23.44 18.696 20.944 22.248 20.944C25.824 20.944 27.72 23.44 27.72 26.392Z" fill="#4B443B"/>
<path d="M36.8267 40.216C33.2267 40.216 30.8027 38.248 30.8027 34.912C30.8027 32.416 32.1947 30.664 34.4747 30.064C32.6027 29.464 31.3547 27.88 31.3547 25.744C31.3547 22.912 33.4427 20.944 36.8267 20.944C40.2107 20.944 42.2987 22.912 42.2987 25.744C42.2987 27.88 41.0507 29.464 39.1787 30.064C41.4587 30.664 42.8747 32.416 42.8747 34.912C42.8747 38.248 40.4267 40.216 36.8267 40.216ZM36.8267 29.392C39.1787 29.392 40.8107 28.024 40.8107 25.84C40.8107 23.656 39.1787 22.264 36.8267 22.264C34.4747 22.264 32.8427 23.656 32.8427 25.84C32.8427 28.024 34.4747 29.392 36.8267 29.392ZM41.3627 34.816C41.3627 32.224 39.4907 30.688 36.8267 30.688C34.1867 30.688 32.2907 32.224 32.2907 34.816C32.2907 37.408 34.1867 38.92 36.8267 38.92C39.4907 38.92 41.3627 37.408 41.3627 34.816Z" fill="#4B443B"/>
</svg>
