<svg width="60" height="60" viewBox="0 0 60 60" fill="none" xmlns="http://www.w3.org/2000/svg">
<path d="M0 0H60V60H0V0Z" fill="#EBA6A6"/>
<path d="M27.72 26.392C27.72 28.096 27.36 29.224 25.896 30.832L19.032 38.608H28.008V39.904H17.04V38.68L24.696 30.016C25.8 28.768 26.232 27.712 26.232 26.416C26.232 24.04 24.768 22.264 22.248 22.264C19.704 22.264 18.264 24.064 18.264 26.416V26.944H16.776V26.392C16.776 23.44 18.696 20.944 22.248 20.944C25.824 20.944 27.72 23.44 27.72 26.392Z" fill="#4B443B"/>
<path d="M42.7547 30.568C42.7547 34.888 42.1787 36.976 41.0027 38.464C40.0907 39.616 38.6747 40.216 36.8267 40.216C34.9787 40.216 33.5867 39.616 32.6507 38.464C31.4747 36.976 30.8987 34.888 30.8987 30.568C30.8987 26.296 31.4747 24.184 32.6507 22.72C33.5867 21.568 34.9787 20.944 36.8267 20.944C38.6747 20.944 40.0907 21.568 41.0027 22.72C42.1787 24.184 42.7547 26.296 42.7547 30.568ZM41.2667 30.568C41.2667 26.704 40.8347 24.784 39.9467 23.656C39.2507 22.768 38.1947 22.264 36.8267 22.264C35.4587 22.264 34.4027 22.768 33.7067 23.656C32.8187 24.784 32.3867 26.704 32.3867 30.568C32.3867 34.456 32.8187 36.376 33.7067 37.504C34.4027 38.392 35.4587 38.92 36.8267 38.92C38.1947 38.92 39.2507 38.392 39.9467 37.504C40.8347 36.376 41.2667 34.456 41.2667 30.568Z" fill="#4B443B"/>
</svg>
