<svg width="60" height="60" viewBox="0 0 60 60" fill="none" xmlns="http://www.w3.org/2000/svg">
<path d="M0 0H60V60H0V0Z" fill="#EBA6A6"/>
<path d="M27.72 26.392C27.72 28.096 27.36 29.224 25.896 30.832L19.032 38.608H28.008V39.904H17.04V38.68L24.696 30.016C25.8 28.768 26.232 27.712 26.232 26.416C26.232 24.04 24.768 22.264 22.248 22.264C19.704 22.264 18.264 24.064 18.264 26.416V26.944H16.776V26.392C16.776 23.44 18.696 20.944 22.248 20.944C25.824 20.944 27.72 23.44 27.72 26.392Z" fill="#4B443B"/>
<path d="M42.1547 25.456H40.5947C40.3307 23.272 38.9147 22.264 36.9227 22.264C33.8747 22.264 32.8187 24.568 32.7227 30.184C33.3947 28.768 34.9547 27.808 37.0667 27.808C40.4747 27.808 42.6587 30.184 42.6587 34.024C42.6587 37.864 40.3547 40.216 36.9467 40.216C34.5467 40.216 32.7227 39.16 31.8107 36.88C31.3067 35.656 31.1867 33.976 31.1867 32.008V31.6C31.1867 23.656 32.8907 20.944 36.9707 20.944C39.8267 20.944 41.7947 22.456 42.1547 25.456ZM36.9467 38.896C39.4667 38.896 41.1707 37.12 41.1707 34.024C41.1707 30.952 39.4667 29.128 36.9467 29.128C34.4267 29.128 32.7227 30.952 32.7227 34.024C32.7227 37.12 34.4267 38.896 36.9467 38.896Z" fill="#4B443B"/>
</svg>
