<svg width="60" height="60" viewBox="0 0 60 60" fill="none" xmlns="http://www.w3.org/2000/svg">
<path d="M0 0H60V60H0V0Z" fill="#EBA6A6"/>
<path d="M27.496 34.792C27.496 32.296 25.936 30.64 23.368 30.64H21.544V29.344H23.464C25.768 29.344 26.944 27.664 26.944 25.792C26.944 23.728 25.456 22.264 23.224 22.264C20.92 22.264 19.504 23.728 19.504 25.792V26.128H18.016V25.696C18.016 23.032 19.984 20.944 23.224 20.944C26.464 20.944 28.432 23.032 28.432 25.696C28.432 27.856 27.352 29.464 25.432 29.992C27.52 30.472 28.984 32.128 28.984 34.816C28.984 38.152 26.656 40.216 23.224 40.216C19.792 40.216 17.44 38.056 17.44 34.624V34.456H18.952V34.576C18.952 37.288 20.752 38.92 23.224 38.92C25.696 38.92 27.496 37.312 27.496 34.792Z" fill="#4B443B"/>
<path d="M43.7547 30.568C43.7547 34.888 43.1787 36.976 42.0027 38.464C41.0907 39.616 39.6747 40.216 37.8267 40.216C35.9787 40.216 34.5867 39.616 33.6507 38.464C32.4747 36.976 31.8987 34.888 31.8987 30.568C31.8987 26.296 32.4747 24.184 33.6507 22.72C34.5867 21.568 35.9787 20.944 37.8267 20.944C39.6747 20.944 41.0907 21.568 42.0027 22.72C43.1787 24.184 43.7547 26.296 43.7547 30.568ZM42.2667 30.568C42.2667 26.704 41.8347 24.784 40.9467 23.656C40.2507 22.768 39.1947 22.264 37.8267 22.264C36.4587 22.264 35.4027 22.768 34.7067 23.656C33.8187 24.784 33.3867 26.704 33.3867 30.568C33.3867 34.456 33.8187 36.376 34.7067 37.504C35.4027 38.392 36.4587 38.92 37.8267 38.92C39.1947 38.92 40.2507 38.392 40.9467 37.504C41.8347 36.376 42.2667 34.456 42.2667 30.568Z" fill="#4B443B"/>
</svg>
