<svg width="60" height="60" viewBox="0 0 60 60" fill="none" xmlns="http://www.w3.org/2000/svg">
<path d="M0 0H60V60H0V0Z" fill="#D7CFC9"/>
<path d="M27.496 34.792C27.496 32.296 25.936 30.64 23.368 30.64H21.544V29.344H23.464C25.768 29.344 26.944 27.664 26.944 25.792C26.944 23.728 25.456 22.264 23.224 22.264C20.92 22.264 19.504 23.728 19.504 25.792V26.128H18.016V25.696C18.016 23.032 19.984 20.944 23.224 20.944C26.464 20.944 28.432 23.032 28.432 25.696C28.432 27.856 27.352 29.464 25.432 29.992C27.52 30.472 28.984 32.128 28.984 34.816C28.984 38.152 26.656 40.216 23.224 40.216C19.792 40.216 17.44 38.056 17.44 34.624V34.456H18.952V34.576C18.952 37.288 20.752 38.92 23.224 38.92C25.696 38.92 27.496 37.312 27.496 34.792Z" fill="#4B443B"/>
<path d="M40.1307 39.904H38.6427V22.84L33.7947 25V23.512L38.8107 21.256H40.1307V39.904Z" fill="#4B443B"/>
</svg>
