<svg width="60" height="60" viewBox="0 0 60 60" fill="none" xmlns="http://www.w3.org/2000/svg">
<path d="M0 0H60V60H0V0Z" fill="#D7CFC9"/>
<path d="M34.496 34.792C34.496 32.296 32.936 30.64 30.368 30.64H28.544V29.344H30.464C32.768 29.344 33.944 27.664 33.944 25.792C33.944 23.728 32.456 22.264 30.224 22.264C27.92 22.264 26.504 23.728 26.504 25.792V26.128H25.016V25.696C25.016 23.032 26.984 20.944 30.224 20.944C33.464 20.944 35.432 23.032 35.432 25.696C35.432 27.856 34.352 29.464 32.432 29.992C34.52 30.472 35.984 32.128 35.984 34.816C35.984 38.152 33.656 40.216 30.224 40.216C26.792 40.216 24.44 38.056 24.44 34.624V34.456H25.952V34.576C25.952 37.288 27.752 38.92 30.224 38.92C32.696 38.92 34.496 37.312 34.496 34.792Z" fill="#4B443B"/>
</svg>
