<svg width="60" height="60" viewBox="0 0 60 60" fill="none" xmlns="http://www.w3.org/2000/svg">
<path d="M0 0H60V60H0V0Z" fill="#EBA6A6"/>
<path d="M29.392 29.128C27.808 29.128 26.56 29.968 25.936 31.48H24.424L24.904 21.256H33.976V22.576H26.32L25.984 29.68C26.632 28.576 27.904 27.808 29.608 27.808C32.896 27.808 34.984 30.016 34.984 34.048C34.984 37.96 32.872 40.216 29.392 40.216C26.08 40.216 24.112 38.272 23.824 35.032H25.312C25.576 37.6 27.064 38.92 29.392 38.92C32.008 38.92 33.496 37.168 33.496 34.024C33.496 30.88 32.008 29.128 29.392 29.128Z" fill="#4B443B"/>
</svg>
