<svg width="60" height="60" viewBox="0 0 60 60" fill="none" xmlns="http://www.w3.org/2000/svg">
<path d="M0 0H60V60H0V0Z" fill="#D7CFC9"/>
<path d="M35.6 25.456H34.04C33.776 23.272 32.36 22.264 30.368 22.264C27.32 22.264 26.264 24.568 26.168 30.184C26.84 28.768 28.4 27.808 30.512 27.808C33.92 27.808 36.104 30.184 36.104 34.024C36.104 37.864 33.8 40.216 30.392 40.216C27.992 40.216 26.168 39.16 25.256 36.88C24.752 35.656 24.632 33.976 24.632 32.008V31.6C24.632 23.656 26.336 20.944 30.416 20.944C33.272 20.944 35.24 22.456 35.6 25.456ZM30.392 38.896C32.912 38.896 34.616 37.12 34.616 34.024C34.616 30.952 32.912 29.128 30.392 29.128C27.872 29.128 26.168 30.952 26.168 34.024C26.168 37.12 27.872 38.896 30.392 38.896Z" fill="#4B443B"/>
</svg>
