<svg width="60" height="60" viewBox="0 0 60 60" fill="none" xmlns="http://www.w3.org/2000/svg">
<path d="M0 0H60V60H0V0Z" fill="#98C4A4"/>
<path d="M30.272 40.216C26.672 40.216 24.248 38.248 24.248 34.912C24.248 32.416 25.64 30.664 27.92 30.064C26.048 29.464 24.8 27.88 24.8 25.744C24.8 22.912 26.888 20.944 30.272 20.944C33.656 20.944 35.744 22.912 35.744 25.744C35.744 27.88 34.496 29.464 32.624 30.064C34.904 30.664 36.32 32.416 36.32 34.912C36.32 38.248 33.872 40.216 30.272 40.216ZM30.272 29.392C32.624 29.392 34.256 28.024 34.256 25.84C34.256 23.656 32.624 22.264 30.272 22.264C27.92 22.264 26.288 23.656 26.288 25.84C26.288 28.024 27.92 29.392 30.272 29.392ZM34.808 34.816C34.808 32.224 32.936 30.688 30.272 30.688C27.632 30.688 25.736 32.224 25.736 34.816C25.736 37.408 27.632 38.92 30.272 38.92C32.936 38.92 34.808 37.408 34.808 34.816Z" fill="#4B443B"/>
</svg>
