<svg width="60" height="60" viewBox="0 0 60 60" fill="none" xmlns="http://www.w3.org/2000/svg">
<path d="M0 0H60V60H0V0Z" fill="#EBA6A6"/>
<path d="M24.92 35.704H26.48C26.744 37.888 28.16 38.896 30.152 38.896C33.2 38.896 34.28 36.616 34.352 30.976C33.68 32.392 32.144 33.352 30.008 33.352C26.6 33.352 24.416 30.976 24.416 27.136C24.416 23.296 26.744 20.944 30.152 20.944C32.528 20.944 34.352 22 35.264 24.28C35.768 25.528 35.888 27.184 35.888 29.176V29.584C35.888 37.552 34.136 40.216 30.128 40.216C27.248 40.216 25.28 38.704 24.92 35.704ZM30.152 22.264C27.608 22.264 25.928 24.064 25.928 27.136C25.928 30.232 27.608 32.032 30.152 32.032C32.672 32.032 34.352 30.232 34.352 27.136C34.352 24.064 32.672 22.264 30.152 22.264Z" fill="#4B443B"/>
</svg>
