<svg width="203" height="63" viewBox="0 0 203 63" fill="none" xmlns="http://www.w3.org/2000/svg">
<path d="M0 7.97468C0 3.57039 3.93447 0 8.78788 0H194.212C199.066 0 203 3.57039 203 7.97468V55.0253C203 59.4296 199.066 63 194.212 63H8.78787C3.93446 63 0 59.4296 0 55.0253V7.97468Z" fill="#574D42"/>
<path d="M63.6137 28.795V33.0439H83.0068V35.7425H73.1995V40.9101H84.1457V43.6088H58.6784V40.9101H69.7828V35.7425H60.1653V26.0964H79.2104V21.9336H60.1653V19.1775H82.6588V28.795H63.6137Z" fill="#D7CFC9"/>
<path d="M109.58 28.2495V21.9336H90.3452V19.1775H113.028V27.8476C113.028 31.063 112.712 34.5368 112.111 37.0919H108.726C109.327 34.5655 109.58 31.0917 109.58 28.2495ZM89.0481 43.6088V40.9101H114.515V43.6088H89.0481Z" fill="#D7CFC9"/>
<path d="M119.797 26.0676C119.797 23.4264 120.683 21.3881 122.202 20.1249C123.499 19.0914 125.239 18.5459 127.327 18.5459C129.447 18.5459 131.187 19.0914 132.452 20.1249C134.002 21.3881 134.856 23.4264 134.856 26.0676C134.856 28.7376 134.002 30.7759 132.452 32.0391C131.187 33.0726 129.447 33.6181 127.327 33.6181C125.239 33.6181 123.499 33.0726 122.202 32.0391C120.683 30.7759 119.797 28.7376 119.797 26.0676ZM123.151 26.0676C123.151 27.8189 123.625 29.1108 124.511 29.9433C125.207 30.5749 126.156 30.9194 127.327 30.9194C128.497 30.9194 129.446 30.5749 130.174 29.9433C131.028 29.1108 131.503 27.8189 131.503 26.0676C131.503 24.3451 131.028 23.0245 130.174 22.2207C129.446 21.5891 128.497 21.2446 127.327 21.2446C126.156 21.2446 125.207 21.5891 124.511 22.2207C123.625 23.0245 123.151 24.3451 123.151 26.0676ZM143.367 36.9483H139.918V18.7182H143.367V36.9483ZM143.873 44.872H121.917V36.0296H125.365V42.1733H143.873V44.872Z" fill="#D7CFC9"/>
</svg>
